<?xml version="1.0" standalone="no"?>
<!DOCTYPE svg PUBLIC "-//W3C//DTD SVG 20010904//EN"
 "http://www.w3.org/TR/2001/REC-SVG-20010904/DTD/svg10.dtd">
<svg version="1.0" xmlns="http://www.w3.org/2000/svg"
 width="1472.000000pt" height="832.000000pt" viewBox="0 0 1472.000000 832.000000"
 preserveAspectRatio="xMidYMid meet">

<g transform="translate(0.000000,832.000000) scale(0.100000,-0.100000)"
fill="#000000" stroke="none">
<path d="M9220 6563 c-435 -44 -804 -208 -1099 -487 -147 -140 -282 -354 -306
-486 -6 -33 -3 -38 41 -74 69 -58 74 -76 74 -291 l0 -185 234 0 234 0 22 73
c86 282 279 511 535 633 132 63 231 85 410 91 128 4 165 2 255 -17 301 -62
522 -240 639 -515 43 -101 70 -138 117 -160 50 -24 100 -18 364 40 234 52 277
71 312 135 16 28 19 48 15 105 -18 253 -283 628 -587 828 -332 219 -681 320
-1089 315 -75 0 -152 -3 -171 -5z"/>
<path d="M3612 6500 c-18 -11 -41 -34 -52 -52 -20 -33 -20 -55 -20 -1961 0
-2077 -3 -1970 48 -2018 40 -37 57 -39 326 -39 l266 0 0 1675 0 1676 24 24
c41 40 95 45 141 11 20 -14 20 -29 25 -1703 l5 -1688 735 -2 c851 -3 888 -2
931 34 62 52 64 63 64 333 0 276 -3 288 -72 332 l-38 23 -627 5 -628 5 -37 38
-38 37 -3 374 -3 374 33 35 c19 19 51 40 73 46 26 7 187 11 473 11 477 0 479
0 523 61 24 33 24 38 27 284 3 243 2 251 -20 295 -42 82 -30 80 -538 80 -442
0 -446 0 -490 23 -81 40 -80 36 -80 478 0 384 0 386 23 419 12 18 35 43 50 54
28 21 39 21 652 26 610 5 624 5 651 26 15 11 37 33 48 48 20 26 21 40 21 291
0 252 -1 265 -21 292 -11 15 -36 38 -54 51 l-33 22 -1176 0 c-1156 0 -1177 0
-1209 -20z"/>
<path d="M7125 5536 c-39 -18 -79 -63 -94 -105 -7 -21 -11 -108 -11 -221 0
-196 -6 -232 -46 -286 -47 -63 -72 -68 -350 -74 -247 -5 -251 -5 -287 -30 -70
-47 -77 -76 -77 -328 0 -242 5 -270 57 -325 15 -15 43 -32 62 -37 20 -5 139
-10 265 -10 264 0 290 -6 342 -82 l29 -41 6 -231 c6 -245 10 -270 57 -319 52
-55 62 -57 312 -57 246 0 262 3 306 52 38 42 44 82 44 310 0 197 2 223 20 257
23 46 67 85 112 100 19 6 142 12 283 13 275 3 286 6 338 68 35 41 39 80 35
325 -3 200 -4 212 -27 248 -12 21 -42 48 -65 60 -39 21 -57 22 -306 27 -225 4
-270 8 -296 22 -38 21 -82 71 -89 101 -2 12 -6 121 -7 242 -3 250 -9 270 -84
312 -37 22 -49 23 -269 22 -170 0 -238 -3 -260 -13z"/>
<path d="M9495 4758 c-43 -15 -92 -65 -111 -113 -13 -35 -15 -83 -12 -301 l3
-261 28 -36 c56 -73 46 -72 485 -75 l392 -3 0 -140 c0 -123 -3 -150 -25 -215
-102 -305 -445 -514 -840 -514 -234 1 -430 58 -624 184 -184 119 -360 342
-441 560 l-20 53 -53 7 c-28 3 -116 6 -193 6 l-141 0 -7 -67 c-3 -38 -6 -129
-5 -204 1 -98 -3 -145 -14 -170 -16 -37 -52 -80 -82 -96 -18 -11 -18 -13 9
-76 30 -70 114 -203 179 -282 231 -280 573 -491 936 -580 186 -45 236 -50 486
-49 216 1 252 3 365 26 580 119 1021 444 1217 898 69 162 67 137 70 755 l3
560 -29 51 c-22 38 -42 57 -74 73 -43 21 -51 21 -758 20 -468 0 -724 -4 -744
-11z"/>
<path d="M6675 2030 c-92 -16 -161 -65 -199 -142 -34 -68 -36 -189 -5 -258 44
-97 123 -150 234 -158 86 -5 152 19 208 76 35 36 36 40 43 135 l7 97 -117 0
-116 0 0 -51 0 -50 53 6 c65 8 88 -9 69 -50 -30 -64 -155 -88 -223 -42 -68 46
-99 152 -68 234 13 34 55 80 91 99 57 30 160 9 193 -40 15 -20 16 -20 48 19
17 22 32 44 32 50 0 15 -125 73 -170 78 -22 2 -58 1 -80 -3z"/>
<path d="M7866 2010 c-131 -51 -195 -195 -152 -342 18 -64 79 -139 137 -169
57 -29 175 -52 200 -38 17 9 27 5 62 -24 23 -18 54 -42 69 -51 27 -17 28 -17
68 15 22 18 40 35 40 38 0 3 -29 22 -65 40 -36 19 -65 39 -65 44 0 5 14 25 31
45 47 54 63 98 63 182 1 168 -107 278 -274 279 -41 0 -83 -7 -114 -19z m194
-95 c53 -27 84 -80 88 -150 5 -74 -9 -123 -43 -155 l-24 -23 -35 27 c-42 31
-53 32 -61 5 -5 -14 -1 -25 11 -33 17 -13 17 -14 -2 -20 -54 -17 -143 41 -169
109 -50 129 25 255 152 255 30 0 67 -7 83 -15z"/>
<path d="M8708 2022 l-38 -3 0 -194 0 -195 -29 -32 c-26 -29 -35 -33 -80 -33
-42 0 -55 5 -78 28 l-28 27 -3 200 -3 200 -55 0 -56 0 4 -207 c3 -236 8 -252
86 -307 36 -26 53 -30 124 -34 108 -5 160 19 198 93 24 47 25 58 28 251 4 225
8 212 -70 206z"/>
<path d="M9051 2012 c-29 -53 -221 -512 -221 -527 0 -3 24 -5 54 -5 l53 0 18
45 17 46 126 -3 125 -3 16 -42 15 -43 58 0 c56 0 57 1 49 23 -46 117 -203 484
-216 503 -20 30 -79 34 -94 6z m92 -243 c20 -49 37 -94 37 -100 0 -5 -36 -9
-80 -9 -62 0 -80 3 -80 14 0 20 71 186 79 186 4 0 24 -41 44 -91z"/>
<path d="M10145 2009 c-56 -28 -114 -86 -138 -139 -29 -63 -28 -167 2 -235 46
-103 124 -156 241 -163 88 -5 140 12 202 67 116 102 120 311 7 418 -55 51
-113 73 -199 72 -55 0 -86 -5 -115 -20z m209 -97 c39 -22 74 -85 82 -145 5
-38 2 -56 -19 -100 -32 -65 -82 -97 -151 -97 -71 0 -119 29 -150 92 -54 109
-14 229 89 267 39 14 110 6 149 -17z"/>
<path d="M3530 2009 c0 -6 15 -61 34 -122 18 -62 51 -179 71 -260 l38 -148 40
3 39 3 60 165 c33 91 63 169 68 173 7 7 53 -118 108 -291 l17 -53 40 3 39 3
34 115 c37 129 112 406 112 414 0 4 -22 6 -48 6 l-49 0 -15 -57 c-9 -32 -29
-109 -44 -170 -15 -62 -30 -113 -33 -113 -4 1 -31 76 -62 168 l-56 167 -38 0
-37 0 -34 -100 c-55 -162 -86 -237 -93 -228 -4 4 -25 73 -46 153 -21 80 -42
153 -47 163 -6 12 -21 17 -53 17 -26 0 -45 -5 -45 -11z"/>
<path d="M4298 1790 c-1 -126 -2 -247 -2 -267 l-1 -38 54 -3 53 -3 -3 270 -4
271 -47 0 -48 0 -2 -230z"/>
<path d="M4510 1751 l0 -271 50 0 50 0 1 158 c1 86 1 165 0 175 -4 31 18 18
51 -31 18 -26 76 -105 128 -175 l95 -127 48 0 47 0 0 270 0 270 -50 0 -50 0 0
-170 c0 -93 -3 -170 -7 -170 -5 1 -67 76 -138 168 l-131 167 -47 3 -47 3 0
-270z"/>
<path d="M5102 1753 l3 -268 50 0 50 0 -3 180 -3 180 30 -35 c16 -19 78 -101
138 -182 l108 -147 43 -1 42 0 0 270 0 270 -52 0 -51 0 7 -177 c7 -202 13
-196 -76 -82 -24 31 -78 102 -121 158 l-78 101 -45 0 -44 0 2 -267z"/>
<path d="M5670 1750 l0 -270 55 0 55 0 0 218 c0 119 -3 241 -6 270 l-7 52 -48
0 -49 0 0 -270z"/>
<path d="M5890 1750 l0 -270 50 0 50 0 0 182 0 182 38 -44 c54 -64 221 -279
233 -301 7 -14 21 -19 54 -19 l45 0 0 270 0 270 -50 0 -50 0 -2 -177 -3 -177
-111 139 c-61 77 -123 157 -138 178 -25 33 -33 37 -72 37 l-44 0 0 -270z"/>
<path d="M7270 1843 c0 -98 3 -222 7 -275 l6 -98 179 0 178 0 0 50 0 49 -127
3 -128 3 -3 67 -3 67 113 3 113 3 3 42 3 42 -113 3 -113 3 -3 63 -3 62 131 0
130 0 0 45 0 45 -185 0 -185 0 0 -177z"/>
<path d="M9310 1975 l0 -44 78 -3 77 -3 3 -222 2 -222 34 -7 c74 -13 71 -25
71 226 l0 225 78 3 c83 3 82 3 71 61 l-6 31 -204 0 -204 0 0 -45z"/>
<path d="M9790 1751 l0 -269 45 -6 c25 -4 49 -4 55 -1 6 4 10 106 10 276 l0
269 -55 0 -55 0 0 -269z"/>
<path d="M10640 2013 c0 -5 -3 -126 -6 -269 -4 -195 -3 -263 6 -269 6 -4 31
-4 56 0 l44 6 0 175 c0 120 3 173 11 169 5 -4 66 -83 136 -176 l125 -169 49 0
49 0 0 270 0 270 -52 0 -53 0 3 -177 2 -178 -27 31 c-16 17 -80 96 -143 177
l-115 146 -42 1 c-24 0 -43 -3 -43 -7z"/>
</g>
</svg>
